<?xml version="1.0" standalone="no"?>
<!DOCTYPE svg PUBLIC "-//W3C//DTD SVG 20010904//EN"
 "http://www.w3.org/TR/2001/REC-SVG-20010904/DTD/svg10.dtd">
<svg version="1.0" xmlns="http://www.w3.org/2000/svg"
 width="1472.000000pt" height="828.000000pt" viewBox="0 0 1472.000000 828.000000"
 preserveAspectRatio="xMidYMid meet">
<metadata>
Created by potrace 1.16, written by Peter Selinger 2001-2019
</metadata>
<g transform="translate(0.000000,828.000000) scale(0.100000,-0.100000)"
fill="#FFFFFF" stroke="none">
<path d="M6938 8157 c-87 -5 -158 -13 -158 -18 0 -4 -13 -4 -29 1 -16 4 -33 4
-37 0 -12 -11 -172 -33 -184 -25 -6 3 -10 0 -10 -7 0 -12 -29 -18 -117 -22
-18 0 -33 -4 -33 -8 0 -3 -18 -9 -40 -13 -22 -4 -42 -11 -46 -16 -3 -5 -14 -4
-26 2 -17 9 -20 9 -16 -2 5 -14 -9 -17 -85 -22 -15 -1 -26 -6 -23 -12 2 -5
-10 -11 -27 -11 -17 -1 -33 -6 -35 -13 -3 -8 -9 -8 -24 0 -18 9 -20 9 -15 -4
4 -11 2 -14 -9 -10 -7 3 -14 0 -14 -7 0 -6 -4 -8 -10 -5 -5 3 -20 0 -32 -7
-13 -7 -29 -11 -35 -10 -7 2 -13 -2 -13 -8 0 -5 -3 -9 -7 -8 -17 4 -73 -14
-73 -23 0 -6 -4 -8 -9 -4 -9 5 -78 -22 -91 -35 -3 -3 -13 -6 -22 -8 -10 -2
-41 -14 -70 -27 -29 -14 -59 -25 -66 -25 -7 0 -15 -6 -18 -13 -3 -8 -11 -14
-18 -14 -34 0 -340 -172 -501 -282 -120 -82 -313 -230 -334 -257 -10 -13 -21
-21 -23 -19 -8 8 -309 -286 -303 -295 3 -5 0 -12 -6 -16 -8 -5 -10 -2 -4 7 10
18 -72 -73 -157 -175 -37 -45 -68 -87 -68 -93 0 -7 -4 -13 -10 -13 -11 0 -76
-92 -72 -102 1 -5 -2 -8 -7 -8 -9 0 -58 -69 -59 -84 0 -5 -5 -12 -11 -15 -12
-8 -91 -128 -94 -144 -1 -7 -7 -16 -14 -22 -7 -5 -13 -17 -15 -25 -2 -8 -11
-23 -20 -34 -10 -10 -15 -23 -12 -28 3 -4 1 -8 -5 -8 -12 0 -161 -299 -164
-328 0 -11 -4 -19 -8 -16 -4 2 -9 -4 -12 -14 -3 -9 -28 -77 -56 -150 -28 -74
-49 -138 -45 -143 3 -5 0 -9 -5 -9 -6 0 -11 -9 -11 -19 0 -11 -6 -26 -12 -33
-7 -7 -13 -28 -13 -45 1 -18 -3 -33 -8 -33 -5 0 -7 -7 -3 -15 3 -9 0 -15 -10
-15 -11 0 -12 -4 -4 -19 6 -12 6 -22 1 -26 -5 -3 -12 -19 -16 -35 -4 -17 -10
-30 -13 -30 -4 0 -8 -15 -8 -32 -3 -63 -9 -106 -15 -102 -4 2 -12 -31 -18 -73
-6 -43 -15 -80 -20 -83 -11 -7 -8 -53 4 -62 6 -5 5 -8 -3 -8 -8 0 -12 -13 -12
-32 1 -40 -10 -99 -20 -113 -10 -13 -10 -885 0 -885 9 0 21 -79 20 -135 0 -30
2 -36 10 -25 13 19 13 8 0 -25 -7 -19 -6 -27 3 -31 11 -4 17 -40 21 -126 0
-16 6 -28 13 -28 7 0 10 -7 7 -15 -3 -8 -2 -20 2 -27 9 -15 10 -19 12 -66 1
-18 6 -31 11 -28 5 4 7 -3 4 -14 -3 -11 -1 -20 3 -20 5 0 10 -15 11 -32 2 -18
7 -44 12 -58 5 -14 21 -64 37 -112 15 -49 30 -88 33 -88 3 0 7 -12 8 -26 0
-15 5 -29 10 -33 4 -3 8 -10 8 -16 1 -21 27 -85 35 -85 5 0 7 -7 4 -15 -4 -8
-2 -15 3 -15 5 0 10 -6 10 -14 0 -21 66 -166 75 -166 5 0 6 -4 3 -10 -3 -5 -1
-10 4 -10 6 0 10 -3 9 -7 -4 -15 14 -53 24 -53 6 0 8 -3 5 -7 -17 -16 259
-483 285 -483 5 0 7 -4 4 -8 -3 -5 8 -23 24 -41 16 -17 30 -35 30 -39 2 -27
340 -417 431 -497 24 -21 37 -34 29 -30 -8 5 16 -25 55 -66 38 -41 74 -72 80
-71 5 2 7 0 3 -4 -11 -10 12 -35 25 -27 5 3 7 1 4 -4 -4 -6 41 -54 98 -108 58
-53 105 -95 105 -93 0 2 23 -17 52 -43 28 -27 55 -46 59 -44 4 3 9 -1 12 -8
10 -27 334 -260 349 -251 4 3 8 1 8 -5 0 -11 60 -47 73 -43 4 1 7 -2 7 -7 0
-11 128 -84 147 -84 7 0 13 -4 13 -9 0 -10 253 -134 285 -139 11 -2 26 -10 33
-17 12 -11 34 -16 55 -13 4 0 7 -4 7 -10 0 -6 7 -8 16 -5 8 3 13 2 10 -2 -6
-10 233 -94 245 -86 5 3 9 1 9 -4 0 -12 150 -53 163 -45 6 3 7 2 4 -4 -3 -5
20 -15 54 -22 32 -6 59 -16 59 -21 0 -5 7 -7 15 -3 21 7 135 -17 135 -29 0 -5
4 -6 10 -3 11 7 170 -16 170 -24 0 -3 16 -6 35 -6 19 0 35 5 35 10 0 6 3 6 8
-1 13 -18 271 -38 514 -39 131 0 238 3 238 6 0 7 259 31 270 24 5 -3 11 -1 14
3 7 12 151 36 170 29 9 -4 16 -3 16 2 0 11 115 35 129 27 6 -4 11 -3 11 2 0
12 36 24 80 26 19 0 37 4 40 8 3 3 59 22 125 42 240 73 642 241 667 280 4 6 8
7 8 3 0 -10 80 34 80 43 0 4 6 7 13 7 30 0 399 240 417 271 5 9 10 13 10 9 1
-23 258 199 425 367 145 146 282 302 277 317 -1 5 2 9 8 9 12 0 108 127 195
257 37 57 72 103 76 103 4 0 6 9 4 20 -2 11 0 20 5 20 21 0 209 369 286 562
21 53 43 94 48 91 5 -3 6 -1 2 5 -4 7 9 60 29 118 19 58 33 110 30 115 -4 5
-1 9 4 9 6 0 11 7 11 15 0 8 5 15 11 15 5 0 7 5 4 11 -9 14 15 99 27 99 5 0 6
5 2 11 -8 14 16 119 27 119 5 0 6 7 2 15 -7 21 17 135 29 135 5 0 7 9 3 19 -3
10 4 83 17 162 20 130 22 180 22 504 -1 342 -2 369 -28 530 -38 239 -51 307
-56 301 -5 -5 -7 8 -12 86 -2 25 -6 44 -10 42 -4 -3 -10 11 -14 31 -3 19 -10
35 -16 35 -5 0 -6 4 -3 10 12 19 -66 244 -193 553 -8 20 -19 37 -24 37 -5 0
-7 4 -3 9 3 5 -2 17 -11 25 -8 9 -13 16 -9 16 10 0 -124 255 -146 279 -11 11
-19 23 -19 26 1 13 -32 65 -41 65 -6 0 -8 4 -5 8 5 8 -104 174 -147 223 -14
16 -22 29 -19 29 4 1 -3 9 -15 19 -12 10 -20 21 -18 23 3 3 -17 28 -45 57 -27
29 -44 49 -38 45 21 -13 -89 114 -188 216 -50 52 -113 120 -140 150 -26 30
-52 54 -57 52 -5 -1 -6 1 -3 6 3 5 -62 75 -144 157 -83 82 -150 144 -150 139
0 -5 -5 -1 -11 8 -13 23 -154 138 -169 138 -6 0 -9 4 -6 9 5 8 -22 25 -33 21
-2 -1 -8 5 -13 14 -5 9 -15 16 -22 16 -8 0 -16 6 -19 14 -6 15 -127 100 -127
89 0 -5 -5 0 -11 10 -6 9 -14 15 -20 12 -5 -4 -9 -2 -9 4 0 5 -22 23 -50 40
-27 17 -50 29 -50 26 0 -3 -9 4 -20 15 -12 12 -25 18 -30 15 -6 -4 -10 -2 -10
4 0 11 -99 67 -112 63 -4 -1 -8 3 -8 9 0 5 -4 7 -10 4 -5 -3 -10 -1 -10 5 0 6
-4 8 -10 5 -5 -3 -10 -2 -10 3 0 8 -172 98 -201 104 -7 2 -20 9 -28 16 -7 7
-20 11 -27 8 -8 -3 -14 -2 -14 3 0 12 -50 32 -62 25 -6 -4 -8 -2 -4 4 6 9 -47
29 -66 24 -5 -1 -8 3 -8 9 0 6 -7 8 -16 5 -8 -3 -12 -2 -9 4 6 9 1 11 -37 14
-7 1 -15 4 -18 7 -10 12 -103 38 -113 32 -6 -3 -7 -1 -3 5 4 7 1 12 -8 12 -9
0 -16 5 -16 10 0 7 -6 7 -20 0 -15 -8 -20 -8 -20 1 0 6 -6 9 -14 6 -8 -3 -16
-1 -18 5 -2 5 -17 11 -33 13 -17 1 -43 8 -58 14 -16 6 -33 9 -38 5 -5 -3 -9 0
-9 6 0 6 -8 10 -17 9 -10 -1 -26 2 -37 6 -10 4 -31 8 -46 9 -15 1 -26 4 -24 7
3 6 -77 21 -128 23 -14 0 -24 5 -21 10 3 5 -10 7 -30 4 -20 -2 -34 -1 -32 2 5
8 -174 31 -200 26 -11 -2 -13 -1 -5 2 21 8 -324 30 -450 29 -58 0 -176 -5
-262 -10z m777 -126 c432 -59 810 -176 1200 -373 140 -70 209 -109 213 -120 2
-4 9 -8 15 -8 17 0 210 -126 326 -213 626 -470 1082 -1102 1330 -1845 130
-389 185 -738 185 -1182 0 -286 -14 -450 -60 -695 -101 -549 -337 -1091 -673
-1544 -232 -315 -585 -654 -906 -873 -527 -359 -1090 -565 -1745 -640 -169
-19 -629 -16 -806 5 -788 94 -1478 400 -2068 917 -541 474 -940 1105 -1141
1805 -172 600 -185 1311 -35 1920 244 993 884 1848 1774 2370 117 69 385 199
511 248 307 120 647 204 960 236 55 6 116 13 135 15 19 2 170 3 335 1 232 -3
334 -8 450 -24z"/>
<path d="M7015 6619 c-558 -34 -1037 -239 -1390 -593 -389 -391 -595 -942
-595 -1592 0 -415 73 -755 235 -1089 260 -538 682 -864 1270 -982 73 -14 139
-17 345 -17 224 0 267 3 353 22 400 88 684 281 894 604 119 184 215 430 258
663 11 61 13 -15 14 -567 l1 -638 475 0 475 0 0 1050 0 1050 -1080 0 -1080 0
2 -205 3 -206 513 1 c486 0 513 -1 509 -17 -3 -10 -18 -63 -33 -118 -130 -475
-406 -774 -781 -850 -106 -21 -304 -21 -416 0 -567 106 -947 640 -950 1335 -4
590 257 1068 694 1275 120 56 216 82 357 97 309 31 613 -65 805 -255 134 -132
229 -315 252 -484 l7 -53 537 0 538 0 -4 53 c-22 275 -154 589 -354 837 -327
406 -828 639 -1464 680 -174 11 -209 11 -390 -1z"/>
</g>
</svg>
